<svg width="442" height="442" viewBox="0 0 442 442" fill="none" xmlns="http://www.w3.org/2000/svg">
<path d="M13.8873 428.113L13.1802 428.82L13.8873 428.113ZM89 2H353V0H89V2ZM2 353V89H0V353H2ZM0 353C0 373.714 -0.00212371 389.349 1.61983 401.413C3.24565 413.506 6.51977 422.159 13.1802 428.82L14.5944 427.406C8.36753 421.179 5.198 413.018 3.602 401.147C2.00212 389.247 2 373.77 2 353H0ZM353 2C373.77 2 389.247 2.00212 401.147 3.602C413.018 5.198 421.179 8.36753 427.406 14.5944L428.82 13.1802C422.159 6.51977 413.506 3.24565 401.413 1.61983C389.349 -0.00212371 373.714 0 353 0V2ZM442 89C442 68.2865 442.002 52.6507 440.38 40.5868C438.754 28.4941 435.48 19.8406 428.82 13.1802L427.406 14.5944C433.632 20.8213 436.802 28.9824 438.398 40.8533C439.998 52.753 440 68.2299 440 89H442ZM89 0C68.2865 0 52.6507 -0.00212371 40.5868 1.61983C28.4941 3.24565 19.8406 6.51977 13.1802 13.1802L14.5944 14.5944C20.8213 8.36753 28.9824 5.198 40.8533 3.602C52.753 2.00212 68.2299 2 89 2V0ZM2 89C2 68.2299 2.00212 52.753 3.602 40.8533C5.198 28.9824 8.36753 20.8213 14.5944 14.5944L13.1802 13.1802C6.51977 19.8406 3.24565 28.4941 1.61983 40.5868C-0.00212371 52.6507 0 68.2865 0 89H2ZM440 89V173H442V89H440ZM58.0349 439.692C36.2483 438.931 23.4668 436.278 14.5944 427.406L13.1802 428.82C22.6561 438.296 36.1836 440.93 57.9651 441.691L58.0349 439.692Z" fill="black"/>
</svg>
